<svg width="832" height="426" fill="none" xmlns="http://www.w3.org/2000/svg"><path fill="#F9F9F9" d="M212.132 425l212.132-212.132L212.132.736 0 212.868z"/><path fill="#FFE141" d="M352.132 425l212.132-212.132L352.132.736 140 212.868z"/><path fill="#012783" d="M482.132 425.259l212.132-212.132L482.132.995 270 213.127z"/><path fill="#021951" d="M619.132 425.258l212.132-212.132L619.132.994 407 213.126z"/><path fill-rule="evenodd" clip-rule="evenodd" d="M676.778 210.778H565.667l54.444 55.555 56.667-55.555zm-11.381 4.714h-88.349l43.063 44.175 45.286-44.175z" fill="#fff"/><path fill-rule="evenodd" clip-rule="evenodd" d="M696.778 213H541.222l78.889 77.778L696.778 213zm-5.691 2.357H546.913l73.198 72.088 70.976-72.088z" fill="#fff"/><path fill-rule="evenodd" clip-rule="evenodd" d="M719 213H519l100 100 100-100zm-7.587 3.143H526.587L619 308.556l92.413-92.413zM541.222 213h155.556L619 135.222 541.222 213zm5.691-2.357h144.175L619 138.556l-72.087 72.087z" fill="#fff"/><path fill-rule="evenodd" clip-rule="evenodd" d="M519 213h200L619 113 519 213zm5.691-2.357H713.31L619 116.333l-94.309 94.31z" fill="#fff"/><path d="M651.871 145.871v65.338h-2.357v-67.695l2.357 2.357zm-15.713-15.713v81.051h-2.357v-83.408l2.357 2.357zm-15.714-15.714v96.765h-2.357v-97.296L619 113l1.444 1.444zm-15.713 12.825v83.94h-2.357v-81.583l2.357-2.357zm-15.714 15.714v68.226h-2.357V145.34l2.357-2.357zm-18.07 18.07l2.357-2.357v52.513h-2.357v-50.156zm-15.714 15.714l2.357-2.357v36.799h-2.357v-34.442zM539.52 192.48l2.357-2.357v21.086h-2.357V192.48zm125.708-33.252l2.357 2.357v49.624h-2.357v-51.981zm15.713 15.713v36.268h2.357v-33.911l-2.357-2.357zm15.714 15.714v20.554h2.357v-18.197l-2.357-2.357z" fill="#fff"/><path fill-rule="evenodd" clip-rule="evenodd" d="M619.556 312.445l-100-100 2.413-.45 5.107-.918L624 308l-4.444 4.445z" fill="#fff"/></svg>