<svg width="283" height="283" fill="none" xmlns="http://www.w3.org/2000/svg"><path fill="#021951" d="M141.5 283L.29 141.79 141.217.867l141.209 141.209z"/><path stroke="#fff" d="M141.571 282.293l-34.595-34.595 34.524-34.525 34.595 34.596z"/><path d="M134 117l-4.88 5.333h-8.453a5.336 5.336 0 00-5.334 5.334v32a5.334 5.334 0 005.334 5.333h42.666a5.332 5.332 0 005.334-5.333v-32a5.333 5.333 0 00-5.334-5.334h-8.453L150 117h-16zm8 40a13.334 13.334 0 010-26.667 13.331 13.331 0 0113.333 13.334A13.336 13.336 0 01142 157zm0-2.667l3.333-7.333 7.334-3.333-7.334-3.334L142 133l-3.333 7.333-7.334 3.334 7.334 3.333" fill="#fff"/></svg>