<svg width="283" height="283" fill="none" xmlns="http://www.w3.org/2000/svg"><path fill="#021951" d="M141.5 283L.29 141.79 141.217.867l141.209 141.209z"/><path stroke="#fff" d="M141 212.293L35.641 106.934 141 1.575l105.359 105.36z"/><path d="M142 150.334a9.335 9.335 0 010-18.667 9.333 9.333 0 010 18.667zm19.813-6.747c.107-.853.187-1.707.187-2.587 0-.88-.08-1.76-.187-2.666l5.627-4.347c.507-.4.64-1.12.32-1.707l-5.333-9.226c-.32-.587-1.04-.827-1.627-.587l-6.64 2.667c-1.387-1.04-2.827-1.947-4.507-2.614l-.986-7.066a1.347 1.347 0 00-1.334-1.12h-10.666c-.667 0-1.227.48-1.334 1.12l-.986 7.066c-1.68.667-3.12 1.574-4.507 2.614l-6.64-2.667a1.31 1.31 0 00-1.627.587l-5.333 9.226a1.314 1.314 0 00.32 1.707l5.627 4.347c-.107.906-.187 1.786-.187 2.666 0 .88.08 1.734.187 2.587l-5.627 4.427c-.507.4-.667 1.12-.32 1.706l5.333 9.227c.32.587 1.04.8 1.627.587l6.64-2.694c1.387 1.067 2.827 1.974 4.507 2.64l.986 7.067c.107.64.667 1.12 1.334 1.12h10.666c.667 0 1.227-.48 1.334-1.12l.986-7.067c1.68-.693 3.12-1.573 4.507-2.64l6.64 2.694c.587.213 1.307 0 1.627-.587l5.333-9.227c.32-.586.187-1.306-.32-1.706l-5.627-4.427z" fill="#fff"/></svg>