<svg width="284" height="283" fill="none" xmlns="http://www.w3.org/2000/svg"><path fill="#021951" d="M142 283L.79 141.79 141.717.867l141.209 141.209z"/><path stroke="#fff" d="M142 282.293L36.641 176.934 142 71.575l105.359 105.36z"/><path stroke="#fff" d="M143 282.293l-70.004-70.004L143 142.286l70.004 70.003z"/><path d="M143 143.667a13.331 13.331 0 01-13.333-13.334H135a8 8 0 1016 0h5.333A13.33 13.33 0 01143 143.667zM143 117a8 8 0 018 8h-16a8 8 0 018-8zm18.667 8h-5.334a13.338 13.338 0 00-8.231-12.319A13.33 13.33 0 00129.667 125h-5.334a5.314 5.314 0 00-5.333 5.333v32a5.332 5.332 0 005.333 5.334h37.334a5.33 5.33 0 005.333-5.334v-32a5.334 5.334 0 00-5.333-5.333z" fill="#fff"/></svg>