<svg width="100" height="100" fill="none" xmlns="http://www.w3.org/2000/svg"><path fill-rule="evenodd" clip-rule="evenodd" d="M78.889 48.889H23.333l27.223 27.778 28.333-27.778zm-5.69 2.357H29.023l21.532 22.087 22.642-22.087z" fill="#000"/><path fill-rule="evenodd" clip-rule="evenodd" d="M88.889 50H11.11l39.445 38.889L88.888 50zm-2.845 1.178H13.956l36.6 36.044L86.043 51.18z" fill="#000"/><path fill-rule="evenodd" clip-rule="evenodd" d="M100 50H0l50 50 50-50zm-3.794 1.571H3.794L50 97.778 96.206 51.57zM11.111 50H88.89L50 11.111 11.111 50zm2.845-1.178h72.088L50 12.778 13.956 48.822z" fill="#000"/><path fill-rule="evenodd" clip-rule="evenodd" d="M0 50h100L50 0 0 50zm2.845-1.178h94.31L50 1.666 2.845 48.82z" fill="#000"/><path d="M66.436 16.436v32.668h-1.179V15.258l1.179 1.179zm-7.857-7.857v40.526H57.4V7.4l1.18 1.18zM50.722.722v48.383h-1.178V.456L50 0l.722.722zm-7.857 6.413v41.97h-1.178V8.313l1.178-1.178zm-7.856 7.856v34.114H33.83V16.17l1.179-1.179zm-9.036 9.036l1.179-1.179v26.257h-1.179V24.027zm-7.856 7.856l1.178-1.178v18.4h-1.178V31.883zM10.26 39.74l1.178-1.178v10.543H10.26V39.74zm62.854-16.626l1.178 1.178v24.813h-1.178V23.114zm7.856 7.856v18.135h1.179V32.148l-1.178-1.178zm7.857 7.857v10.278h1.179v-9.1l-1.179-1.178z" fill="#000"/><path fill-rule="evenodd" clip-rule="evenodd" d="M50.278 99.722l-50-50 1.207-.225 2.553-.459L52.5 97.5l-2.222 2.222z" fill="#000"/></svg>