<svg width="175" height="50" fill="none" xmlns="http://www.w3.org/2000/svg"><path d="M.145 44.176v-.402h4.597v.402H2.665v5.713h-.443v-5.713H.145zm7.57 5.713v-6.115h2.63c.55 0 .968.142 1.252.428.29.279.434.68.434 1.205 0 .753-.332 1.235-.996 1.446v.025c.306.103.522.283.647.54.13.25.204.626.221 1.128.028.77.114 1.206.255 1.309v.034h-.476c-.068-.04-.117-.146-.145-.317a11.264 11.264 0 01-.077-1.052c-.022-.57-.133-.955-.332-1.154-.193-.205-.53-.308-1.013-.308H8.157v2.83h-.442zm.442-5.722v2.498H10.2c.449 0 .79-.106 1.022-.317.239-.216.358-.524.358-.923 0-.839-.429-1.258-1.286-1.258H8.157zm6.617 5.722l2.35-6.115h.502l2.358 6.115h-.46l-.749-1.959h-2.8l-.75 1.959h-.45zm2.273-4.764l-.928 2.429h2.512l-.92-2.429-.332-.906h-.017c-.113.347-.218.65-.315.906zm5.815 4.764v-6.115h.493l2.827 4.319.706 1.154h.017v-5.473h.426v6.115h-.468l-2.793-4.225-.766-1.223h-.017v5.448h-.425zm9.87.111c-.738 0-1.311-.188-1.72-.565-.403-.376-.621-.869-.655-1.479h.45c.024.513.205.918.546 1.214.346.291.803.437 1.37.437.477 0 .869-.123 1.175-.368.307-.245.46-.579.46-1 0-.428-.13-.728-.392-.899-.26-.177-.769-.336-1.524-.479-.63-.114-1.098-.288-1.404-.521-.307-.234-.46-.59-.46-1.07 0-.478.184-.866.553-1.163.375-.302.863-.453 1.465-.453.601 0 1.078.157 1.43.47.357.308.559.719.604 1.232h-.442c-.04-.416-.205-.738-.494-.966-.29-.228-.653-.342-1.09-.342-.488 0-.874.114-1.158.342a1.064 1.064 0 00-.417.872c0 .36.122.624.366.795.25.166.69.305 1.32.42.272.05.5.102.68.153.182.046.37.114.563.206.198.085.355.185.468.299.113.114.207.262.28.445.075.176.112.385.112.624 0 .524-.193.955-.58 1.291-.38.337-.882.505-1.506.505zm5.202-.111v-6.115h2.298c.608 0 1.079.162 1.413.487.29.28.435.676.435 1.19 0 1.14-.636 1.71-1.907 1.71h-1.797v2.728h-.442zm.443-5.713v2.591h1.762c.993 0 1.49-.436 1.49-1.308 0-.41-.122-.727-.366-.95-.245-.222-.6-.333-1.065-.333h-1.822zm11.221 4.926c-.505.599-1.166.898-1.983.898-.817 0-1.476-.3-1.975-.898-.5-.599-.75-1.357-.75-2.275 0-.918.25-1.676.75-2.275s1.158-.898 1.975-.898c.817 0 1.478.3 1.983.898.505.599.758 1.357.758 2.275 0 .918-.253 1.676-.758 2.275zm-3.652-.29c.398.524.954.786 1.669.786.715 0 1.274-.262 1.677-.787.403-.53.604-1.191.604-1.984 0-.792-.201-1.451-.604-1.975-.403-.53-.962-.796-1.677-.796-.715 0-1.271.265-1.669.796-.397.524-.596 1.183-.596 1.975 0 .793.199 1.454.596 1.984zm7.526 1.077v-6.115h2.63c.55 0 .968.142 1.252.428.289.279.434.68.434 1.205 0 .753-.332 1.235-.996 1.446v.025c.306.103.522.283.647.54.13.25.204.626.221 1.128.028.77.114 1.206.255 1.309v.034h-.476c-.069-.04-.117-.146-.145-.317a11.3 11.3 0 01-.077-1.052c-.022-.57-.133-.955-.332-1.154-.193-.205-.53-.308-1.013-.308h-1.958v2.83h-.442zm.442-5.722v2.498h2.043c.449 0 .79-.106 1.022-.317.238-.216.358-.524.358-.923 0-.839-.429-1.258-1.286-1.258h-2.137zm6.586.009v-.402h4.597v.402H63.02v5.713h-.443v-5.713H60.5zm6.37 5.713l2.35-6.115h.502l2.358 6.115h-.46l-.749-1.959h-2.8l-.75 1.959h-.451zm2.273-4.764l-.928 2.429h2.511l-.92-2.429-.331-.906h-.017c-.114.347-.219.65-.315.906zm4.708-.949v-.402h4.597v.402h-2.077v5.713h-.443v-5.713h-2.077zm7.604 5.713v-6.115h.443v6.115h-.443zm8.297-.787c-.505.599-1.166.898-1.984.898-.817 0-1.475-.3-1.975-.898-.5-.599-.749-1.357-.749-2.275 0-.918.25-1.676.75-2.275.499-.599 1.157-.898 1.974-.898.818 0 1.479.3 1.984.898.505.599.758 1.357.758 2.275 0 .918-.253 1.676-.758 2.275zm-3.652-.29c.397.524.953.786 1.668.786.716 0 1.275-.262 1.677-.787.403-.53.605-1.191.605-1.984 0-.792-.202-1.451-.605-1.975-.402-.53-.961-.796-1.677-.796-.715 0-1.27.265-1.668.796-.397.524-.596 1.183-.596 1.975 0 .793.198 1.454.596 1.984zm7.525 1.077v-6.115h.494l2.826 4.319.707 1.154h.017v-5.473h.425v6.115h-.468l-2.792-4.225-.766-1.223h-.017v5.448h-.426zm13.064.111c-.534 0-.976-.145-1.328-.436-.352-.291-.528-.687-.528-1.189 0-.445.122-.804.366-1.078.244-.273.602-.538 1.073-.795l-.137-.18a3.28 3.28 0 01-.4-.64 1.689 1.689 0 01-.11-.617c0-.336.119-.621.357-.855.239-.234.537-.35.894-.35.346 0 .633.11.86.333.233.217.349.516.349.898 0 .348-.105.63-.315.847-.21.216-.514.433-.911.65l1.447 1.881c.154-.376.239-.818.256-1.325h.417c0 .632-.131 1.197-.392 1.693l.809 1.052h-.519l-.528-.684c-.409.53-.962.795-1.66.795zm.017-.385c.596 0 1.058-.248 1.387-.744l-1.6-2.078c-.38.21-.675.436-.885.675-.21.234-.315.536-.315.907 0 .376.127.678.383.907.255.222.598.333 1.03.333zm-.639-4.541c0 .313.122.63.366.95l.205.273c.357-.2.615-.388.774-.565a.969.969 0 00.239-.658c0-.257-.074-.46-.222-.607a.716.716 0 00-.553-.231.802.802 0 00-.579.23.824.824 0 00-.23.608zm9.888 4.815v-6.115h.442v5.704h3.278v.41h-3.72zm10.766-.787c-.505.599-1.166.898-1.983.898-.817 0-1.476-.3-1.975-.898-.5-.599-.749-1.357-.749-2.275 0-.918.249-1.676.749-2.275.499-.599 1.158-.898 1.975-.898.817 0 1.478.3 1.983.898.505.599.758 1.357.758 2.275 0 .918-.253 1.676-.758 2.275zm-3.652-.29c.398.524.954.786 1.669.786.715 0 1.274-.262 1.677-.787.403-.53.604-1.191.604-1.984 0-.792-.201-1.451-.604-1.975-.403-.53-.962-.796-1.677-.796-.715 0-1.271.265-1.669.796-.397.524-.596 1.183-.596 1.975 0 .793.199 1.454.596 1.984zm12.233 1.077l-.051-1.095h-.034c-.426.804-1.132 1.206-2.12 1.206-.879 0-1.558-.294-2.034-.88-.471-.588-.707-1.352-.707-2.293 0-.935.253-1.696.758-2.283.505-.593 1.2-.89 2.085-.89.602 0 1.113.157 1.533.47.425.308.695.767.809 1.377h-.443c-.097-.478-.318-.84-.664-1.086-.346-.25-.758-.376-1.235-.376-.777 0-1.37.262-1.779.787-.403.524-.604 1.191-.604 2.001 0 .81.19 1.477.57 2.001.386.52.956.779 1.711.779.704 0 1.232-.206 1.584-.616.357-.416.536-.924.536-1.523v-.265h-2.043v-.393h2.469v3.079h-.341zm3.661 0v-6.115h.442v6.115h-.442zm5.87.111c-.738 0-1.311-.188-1.719-.565-.403-.376-.622-.869-.656-1.479h.451c.023.513.205.918.545 1.214.346.291.803.437 1.371.437.476 0 .868-.123 1.175-.368.306-.245.459-.579.459-1 0-.428-.13-.728-.391-.899-.261-.177-.769-.336-1.524-.479-.63-.114-1.098-.288-1.405-.521-.306-.234-.46-.59-.46-1.07 0-.478.185-.866.554-1.163.374-.302.862-.453 1.464-.453s1.078.157 1.43.47c.358.308.559.719.605 1.232h-.443c-.04-.416-.204-.738-.494-.966-.289-.228-.652-.342-1.089-.342-.489 0-.874.114-1.158.342a1.064 1.064 0 00-.417.872c0 .36.122.624.366.795.249.166.689.305 1.319.42.273.05.5.102.681.153.182.046.369.114.562.206.199.085.355.185.468.299.114.114.208.262.281.445.074.176.111.385.111.624 0 .524-.193.955-.579 1.291-.38.337-.882.505-1.507.505zm4.478-5.824v-.402h4.597v.402h-2.077v5.713h-.443v-5.713h-2.077zm7.604 5.713v-6.115h.443v6.115h-.443zm6.245.111c-.822 0-1.472-.288-1.949-.864-.471-.576-.707-1.34-.707-2.292 0-.952.242-1.722.724-2.309.482-.587 1.135-.88 1.958-.88.602 0 1.101.156 1.498.47.398.313.656.755.775 1.325h-.443a1.68 1.68 0 00-.613-1.026c-.317-.257-.723-.385-1.217-.385-.715 0-1.266.265-1.652.795-.38.525-.57 1.195-.57 2.01 0 .816.187 1.48.562 1.993.38.513.925.77 1.634.77.579 0 1.042-.18 1.388-.54.352-.358.556-.823.613-1.393h.417c-.057.633-.244 1.14-.562 1.522-.442.536-1.061.804-1.856.804zm7.511 0c-.738 0-1.311-.188-1.719-.565-.403-.376-.622-.869-.656-1.479h.451c.023.513.204.918.545 1.214.346.291.803.437 1.371.437.476 0 .868-.123 1.174-.368.307-.245.46-.579.46-1 0-.428-.13-.728-.391-.899-.262-.177-.769-.336-1.524-.479-.63-.114-1.098-.288-1.405-.521-.306-.234-.46-.59-.46-1.07 0-.478.185-.866.554-1.163.374-.302.862-.453 1.464-.453s1.078.157 1.43.47c.358.308.559.719.605 1.232h-.443c-.04-.416-.204-.738-.494-.966-.289-.228-.653-.342-1.09-.342-.488 0-.874.114-1.157.342a1.064 1.064 0 00-.417.872c0 .36.122.624.366.795.249.166.689.305 1.319.42.273.05.5.102.681.153.182.046.369.114.562.206.199.085.355.185.468.299.114.114.207.262.281.445.074.176.111.385.111.624 0 .524-.193.955-.579 1.291-.38.337-.883.505-1.507.505zM30.301 0v2.29H17.576v33.025h-4.851V2.29H0V0h30.301zm7.292 0h11.665c2.015 0 3.782.23 5.302.692 1.538.444 2.81 1.075 3.817 1.891 1.026.817 1.794 1.794 2.307 2.93.512 1.119.769 2.344.769 3.675a8.095 8.095 0 01-.61 3.143 8.289 8.289 0 01-1.697 2.61c-.742.763-1.635 1.42-2.677 1.97-1.043.551-2.21.977-3.5 1.28l12.805 17.124h-6.018L47.535 18.723h-5.09v16.592h-4.852V0zm4.852 16.938h3.95c1.396 0 2.686-.177 3.87-.532 1.202-.355 2.236-.852 3.102-1.492a6.97 6.97 0 002.015-2.37c.495-.923.742-1.962.742-3.116 0-1.065-.194-2.042-.583-2.93a6.38 6.38 0 00-1.644-2.263c-.707-.64-1.546-1.137-2.518-1.492-.972-.355-2.041-.532-3.208-.532h-5.726v14.727zM97.171 0v2.29h-18.53v12.624h12.406v2.29H78.64v15.82h18.531v2.29H73.789V0H97.17zm37.143 36.034h-2.916L107.697 9.508v26.526h-2.598V0h-.031l26.568 29.965V.72h2.678v35.315zM142.578 0h11.187c3.04 0 5.859.346 8.457 1.039 2.598.674 4.843 1.73 6.734 3.169 1.891 1.42 3.366 3.223 4.427 5.406 1.078 2.166 1.617 4.741 1.617 7.724 0 2.486-.433 4.82-1.299 7.004a16.094 16.094 0 01-3.844 5.726c-1.679 1.616-3.756 2.894-6.23 3.835-2.457.941-5.275 1.412-8.457 1.412h-12.592V0zm4.851 32.731h6.813c2.068 0 4.003-.328 5.806-.985a13.234 13.234 0 004.719-2.93c1.361-1.296 2.43-2.885 3.208-4.767.777-1.9 1.166-4.092 1.166-6.578 0-2.184-.371-4.181-1.113-5.992-.725-1.83-1.75-3.4-3.075-4.714-1.308-1.314-2.872-2.335-4.693-3.063-1.82-.728-3.817-1.092-5.991-1.092h-6.84v30.121z" fill="#D9BF36"/></svg>