<svg width="945" height="1240" fill="none" xmlns="http://www.w3.org/2000/svg"><path stroke="#fff" d="M705.567 1239.14l-140.714-140.714 140.714-140.714 140.714 140.714z"/><path stroke="#fff" d="M705.567 1239.14l-70.004-70.004 70.004-70.003 70.004 70.003z"/><path stroke="#fff" d="M705.567 1239.14l-34.648-34.648 34.648-34.648 34.648 34.648z"/><path stroke="#fff" d="M705.567 1239.14l-105.359-105.359 105.359-105.359 105.359 105.36zm140.715-140.72L705.568 957.706l140.714-140.714 140.714 140.714z"/><path stroke="#fff" d="M846.282 1098.42l-70.004-70.004 70.004-70.003 70.004 70.003z"/><path stroke="#fff" d="M846.282 1098.42L740.923 993.061l105.359-105.359 105.359 105.36zm140.714-140.71L846.282 816.996l140.714-140.714 140.714 140.714zm-422.143 140.71L424.139 957.706l140.714-140.714 140.714 140.714z"/><path stroke="#fff" d="M564.853 886.424l-34.648-34.648 34.648-34.648 34.648 34.648zm140.714 71.286L564.853 816.996l140.714-140.714 140.714 140.714z"/><path stroke="#fff" d="M705.567 957.71l-70.004-70.004 70.004-70.003 70.004 70.003z"/><path stroke="#fff" d="M705.567 957.71l-34.648-34.648 34.648-34.648 34.648 34.648z"/><path stroke="#fff" d="M705.567 957.71L600.208 852.351l105.359-105.359 105.359 105.36zm140.715-422.143L705.568 676.28l140.714 140.715L986.996 676.28z"/><path stroke="#fff" d="M846.282 535.567l-70.004 70.004 70.004 70.003 70.004-70.003z"/><path stroke="#fff" d="M846.282 535.567L740.923 640.926l105.359 105.359 105.359-105.36z"/><path stroke="#fff" d="M986.996 676.282L846.282 535.568l140.714-140.714 140.714 140.714z"/><path stroke="#fff" d="M986.996 676.282l-70.004-70.004 70.004-70.003L1057 606.278z"/><path stroke="#fff" d="M986.996 676.282L881.637 570.923l105.359-105.359 105.359 105.36zM423.997 957.568L283.283 816.854 423.997 676.14l140.714 140.714z"/><path stroke="#fff" d="M423.997 957.568l-70.004-70.004 70.004-70.003 70.004 70.003z"/><path stroke="#fff" d="M423.997 957.568l-34.648-34.648 34.648-34.648 34.648 34.648z"/><path stroke="#fff" d="M423.997 957.568L318.638 852.209 423.997 746.85l105.359 105.36zm140.856-140.572L424.139 676.282l140.714-140.714 140.714 140.714z"/><path stroke="#fff" d="M564.71 745.86L459.351 640.501 564.71 535.142l105.359 105.36zm140.857-69.861L564.853 535.285 705.567 394.57l140.714 140.714z"/><path stroke="#fff" d="M705.567 675.999l-70.004-70.004 70.004-70.003 70.004 70.003z"/><path stroke="#fff" d="M705.567 675.999l-34.648-34.648 34.648-34.648 34.648 34.648z"/><path stroke="#fff" d="M705.567 675.999L600.208 570.64l105.359-105.359 105.359 105.36zM846.28 535.285L986.996 394.57 846.281 253.856 705.567 394.571z"/><path stroke="#fff" d="M846.28 323.285l34.65-34.648-34.65-34.649-34.647 34.649z"/><path stroke="#fff" d="M846.714 253.42L741.355 358.78l105.359 105.359 105.359-105.36z"/><path stroke="#fff" d="M987.429 394.136L846.715 253.422l140.714-140.714 140.714 140.714zM283.141 816.712L142.427 675.998 283.14 535.284l140.714 140.714z"/><path stroke="#fff" d="M283.141 674.712l-70.004-70.004 70.004-70.003 70.004 70.003z"/><path stroke="#fff" d="M283.141 604.712l-34.648-34.648 34.648-34.648 34.648 34.648zM424 675.564L283.286 534.85 424 394.136 564.714 534.85z"/><path stroke="#fff" d="M424 675.564l-70.004-70.004L424 535.557l70.004 70.003z"/><path stroke="#fff" d="M424 675.564l-34.648-34.648L424 606.268l34.648 34.648z"/><path stroke="#fff" d="M424 675.564L318.641 570.205 424 464.846l105.359 105.36zM564.714 253.42L424 394.136 564.714 534.85l140.714-140.715z"/><path stroke="#fff" d="M564.714 253.42l-70.004 70.005 70.004 70.003 70.004-70.003z"/><path stroke="#fff" d="M564.714 253.42l-34.648 34.65 34.648 34.647 34.648-34.648z"/><path stroke="#fff" d="M564.714 253.42L459.355 358.78l105.359 105.359 105.359-105.36z"/><path stroke="#fff" d="M705.428 394.135L846.142 253.42 705.428 112.706 564.714 253.421z"/><path stroke="#fff" d="M705.428 182.135l34.648-34.648-34.648-34.649-34.648 34.649zm140.715 71.286L705.429 112.707 846.143-28.007l140.714 140.714z"/><path stroke="#fff" d="M846.143 253.421l-70.004-70.004 70.004-70.003 70.004 70.003z"/><path stroke="#fff" d="M846.143 253.421l-34.648-34.648 34.648-34.648 34.648 34.648z"/><path stroke="#fff" d="M846.143 253.421L740.784 148.062 846.143 42.703l105.359 105.36zM141.995 675.567L1.281 534.853l140.714-140.714 140.714 140.714zM282.71 253.424l140.714 140.714L282.71 534.852 141.996 394.138z"/><path stroke="#fff" d="M282.71 253.424l70.004 70.004-70.004 70.003-70.004-70.003z"/><path stroke="#fff" d="M282.71 253.424l34.648 34.648-34.648 34.648-34.648-34.648z"/><path stroke="#fff" d="M282.71 253.424l105.359 105.359L282.71 464.142l-105.359-105.36zm140.714 140.714L282.71 253.424 423.424 112.71l140.714 140.714z"/><path stroke="#fff" d="M423.424 394.138l-34.648-34.648 34.648-34.648 34.648 34.648z"/><path stroke="#fff" d="M423.424 394.138L318.065 288.779 423.424 183.42l105.359 105.36zM564.137-28.288l140.715 140.714-140.715 140.715-140.714-140.715z"/><path stroke="#fff" d="M564.28 42.848l105.359 105.359L564.28 253.566l-105.359-105.36z"/><path stroke="#fff" d="M564.143 253.421l-70.004-70.004 70.004-70.003 70.004 70.003zm140.85-140.852L564.279-28.145 704.993-168.86 845.707-28.145z"/><path fill-rule="evenodd" clip-rule="evenodd" d="M224.256 531.355H67.033l77.039 78.611 80.184-78.611zm-16.104 6.671H83.137l60.935 62.507 64.08-62.507z" fill="#D9BF36"/><path fill-rule="evenodd" clip-rule="evenodd" d="M252.555 534.5H32.445l111.627 110.056L252.555 534.5zm-8.051 3.335H40.496l103.576 102.004 100.432-102.004z" fill="#D9BF36"/><path fill-rule="evenodd" clip-rule="evenodd" d="M284 534.5H1L142.5 676 284 534.5zm-10.736 4.447H11.736L142.5 669.711l130.764-130.764zM32.444 534.5h220.111L142.5 424.444 32.444 534.5zm8.053-3.335h204.007L142.5 429.161 40.497 531.165z" fill="#D9BF36"/><path fill-rule="evenodd" clip-rule="evenodd" d="M1 534.5h283L142.5 393 1 534.5zm8.052-3.335h266.896L142.5 397.717 9.052 531.165z" fill="#D9BF36"/><path d="M189.013 439.512v92.454h-3.336v-95.789l3.336 3.335zm-22.235-22.234v114.688h-3.335V413.943l3.335 3.335zm-22.235-22.235v136.923h-3.335V394.292L142.5 393l2.043 2.043zm-22.234 18.148v118.775h-3.335v-115.44l3.335-3.335zm-22.235 22.235v96.54h-3.335v-93.205l3.335-3.335zm-25.569 25.569l3.335-3.335v74.306h-3.336v-70.971zM52.27 483.23l3.335-3.335v52.071H52.27V483.23zm-22.235 22.235l3.336-3.336v29.837h-3.336v-26.501zm177.877-47.053l3.335 3.335v70.219h-3.335v-73.554zm22.235 22.234v51.32h3.335v-47.984l-3.335-3.336zm22.234 22.235v29.085h3.335v-25.75l-3.335-3.335z" fill="#D9BF36"/><path fill-rule="evenodd" clip-rule="evenodd" d="M143.286 675.214l-141.5-141.5 3.416-.636 7.226-1.3 137.147 137.147-6.289 6.289z" fill="#D9BF36"/></svg>