<svg width="283" height="283" viewBox="0 0 283 283" fill="none" xmlns="http://www.w3.org/2000/svg">
<rect x="141.5" y="283" width="199.7" height="199.298" transform="rotate(-135 141.5 283)" fill="#021951"/>
<rect x="141.571" y="282.293" width="48.925" height="48.8245" transform="rotate(-135 141.571 282.293)" stroke="white"/>
<path d="M134 117L129.12 122.333H120.667C119.252 122.333 117.896 122.895 116.895 123.895C115.895 124.896 115.333 126.252 115.333 127.667V159.667C115.333 161.081 115.895 162.438 116.895 163.438C117.896 164.438 119.252 165 120.667 165H163.333C164.748 165 166.104 164.438 167.104 163.438C168.105 162.438 168.667 161.081 168.667 159.667V127.667C168.667 126.252 168.105 124.896 167.104 123.895C166.104 122.895 164.748 122.333 163.333 122.333H154.88L150 117H134ZM142 157C138.464 157 135.072 155.595 132.572 153.095C130.071 150.594 128.667 147.203 128.667 143.667C128.667 140.13 130.071 136.739 132.572 134.239C135.072 131.738 138.464 130.333 142 130.333C145.536 130.333 148.928 131.738 151.428 134.239C153.928 136.739 155.333 140.13 155.333 143.667C155.333 147.203 153.928 150.594 151.428 153.095C148.928 155.595 145.536 157 142 157ZM142 154.333L145.333 147L152.667 143.667L145.333 140.333L142 133L138.667 140.333L131.333 143.667L138.667 147" fill="white"/>
</svg>
