<svg width="283" height="283" viewBox="0 0 283 283" fill="none" xmlns="http://www.w3.org/2000/svg">
<rect x="141.5" y="283" width="199.7" height="199.298" transform="rotate(-135 141.5 283)" fill="#021951"/>
<rect x="141" y="212.293" width="149" height="149" transform="rotate(-135 141 212.293)" stroke="white"/>
<path d="M142 150.334C139.525 150.334 137.151 149.35 135.4 147.6C133.65 145.849 132.667 143.476 132.667 141C132.667 138.525 133.65 136.151 135.4 134.401C137.151 132.65 139.525 131.667 142 131.667C144.475 131.667 146.849 132.65 148.6 134.401C150.35 136.151 151.333 138.525 151.333 141C151.333 143.476 150.35 145.849 148.6 147.6C146.849 149.35 144.475 150.334 142 150.334ZM161.813 143.587C161.92 142.734 162 141.88 162 141C162 140.12 161.92 139.24 161.813 138.334L167.44 133.987C167.947 133.587 168.08 132.867 167.76 132.28L162.427 123.054C162.107 122.467 161.387 122.227 160.8 122.467L154.16 125.134C152.773 124.094 151.333 123.187 149.653 122.52L148.667 115.454C148.613 115.139 148.449 114.855 148.205 114.65C147.961 114.445 147.652 114.333 147.333 114.334H136.667C136 114.334 135.44 114.814 135.333 115.454L134.347 122.52C132.667 123.187 131.227 124.094 129.84 125.134L123.2 122.467C122.613 122.227 121.893 122.467 121.573 123.054L116.24 132.28C115.893 132.867 116.053 133.587 116.56 133.987L122.187 138.334C122.08 139.24 122 140.12 122 141C122 141.88 122.08 142.734 122.187 143.587L116.56 148.014C116.053 148.414 115.893 149.134 116.24 149.72L121.573 158.947C121.893 159.534 122.613 159.747 123.2 159.534L129.84 156.84C131.227 157.907 132.667 158.814 134.347 159.48L135.333 166.547C135.44 167.187 136 167.667 136.667 167.667H147.333C148 167.667 148.56 167.187 148.667 166.547L149.653 159.48C151.333 158.787 152.773 157.907 154.16 156.84L160.8 159.534C161.387 159.747 162.107 159.534 162.427 158.947L167.76 149.72C168.08 149.134 167.947 148.414 167.44 148.014L161.813 143.587Z" fill="white"/>
</svg>
