<svg width="284" height="283" viewBox="0 0 284 283" fill="none" xmlns="http://www.w3.org/2000/svg">
<rect x="142" y="283" width="199.7" height="199.298" transform="rotate(-135 142 283)" fill="#021951"/>
<rect x="142" y="282.293" width="149" height="149" transform="rotate(-135 142 282.293)" stroke="white"/>
<rect x="142.571" y="282.293" width="48.925" height="48.8245" transform="rotate(-135 142.571 282.293)" stroke="white"/>
<path d="M143 119.667C145.829 119.667 148.542 120.79 150.543 122.791C152.543 124.791 153.667 127.504 153.667 130.333C153.667 133.162 152.543 135.875 150.543 137.876C148.542 139.876 145.829 141 143 141C140.171 141 137.458 139.876 135.458 137.876C133.457 135.875 132.333 133.162 132.333 130.333C132.333 127.504 133.457 124.791 135.458 122.791C137.458 120.79 140.171 119.667 143 119.667ZM143 146.333C154.787 146.333 164.333 151.107 164.333 157V162.333H121.667V157C121.667 151.107 131.213 146.333 143 146.333Z" fill="white"/>
</svg>
