<svg width="284" height="283" viewBox="0 0 284 283" fill="none" xmlns="http://www.w3.org/2000/svg">
<rect x="142" y="283" width="199.7" height="199.298" transform="rotate(-135 142 283)" fill="#021951"/>
<rect x="142" y="282.293" width="149" height="149" transform="rotate(-135 142 282.293)" stroke="white"/>
<rect x="143" y="282.293" width="99" height="99" transform="rotate(-135 143 282.293)" stroke="white"/>
<path d="M143 143.667C139.464 143.667 136.072 142.262 133.572 139.761C131.071 137.261 129.667 133.869 129.667 130.333H135C135 132.455 135.843 134.49 137.343 135.99C138.843 137.49 140.878 138.333 143 138.333C145.122 138.333 147.157 137.49 148.657 135.99C150.157 134.49 151 132.455 151 130.333H156.333C156.333 133.869 154.929 137.261 152.428 139.761C149.928 142.262 146.536 143.667 143 143.667ZM143 117C145.122 117 147.157 117.843 148.657 119.343C150.157 120.843 151 122.878 151 125H135C135 122.878 135.843 120.843 137.343 119.343C138.843 117.843 140.878 117 143 117ZM161.667 125H156.333C156.333 123.249 155.988 121.515 155.318 119.897C154.648 118.28 153.666 116.81 152.428 115.572C151.19 114.334 149.72 113.352 148.102 112.681C146.485 112.011 144.751 111.667 143 111.667C139.464 111.667 136.072 113.071 133.572 115.572C131.071 118.072 129.667 121.464 129.667 125H124.333C121.373 125 119 127.373 119 130.333V162.333C119 163.748 119.562 165.104 120.562 166.104C121.562 167.105 122.919 167.667 124.333 167.667H161.667C163.081 167.667 164.438 167.105 165.438 166.104C166.438 165.104 167 163.748 167 162.333V130.333C167 128.919 166.438 127.562 165.438 126.562C164.438 125.562 163.081 125 161.667 125Z" fill="white"/>
</svg>
