<svg width="283" height="283" viewBox="0 0 283 283" fill="none" xmlns="http://www.w3.org/2000/svg">
<rect x="141.5" y="282.954" width="199.7" height="199.298" transform="rotate(-135 141.5 282.954)" fill="#021951"/>
<rect x="141.571" y="69.9374" width="48.925" height="48.8245" transform="rotate(-135 141.571 69.9374)" stroke="white"/>
<path d="M166 159.667V162.333H118V159.667L123.333 154.333V138.333C123.333 130.067 128.747 122.787 136.667 120.44V119.667C136.667 118.252 137.229 116.896 138.229 115.896C139.229 114.895 140.586 114.333 142 114.333C143.414 114.333 144.771 114.895 145.771 115.896C146.771 116.896 147.333 118.252 147.333 119.667V120.44C155.253 122.787 160.667 130.067 160.667 138.333V154.333L166 159.667ZM147.333 165C147.333 166.415 146.771 167.771 145.771 168.771C144.771 169.772 143.414 170.333 142 170.333C140.586 170.333 139.229 169.772 138.229 168.771C137.229 167.771 136.667 166.415 136.667 165" fill="white"/>
</svg>
