<svg width="100" height="100" viewBox="0 0 100 100" fill="none" xmlns="http://www.w3.org/2000/svg">
<path fill-rule="evenodd" clip-rule="evenodd" d="M78.8889 48.8888L23.3333 48.8888L50.5555 76.6666L78.8889 48.8888ZM73.1985 51.2458L29.0237 51.2458L50.5555 73.3333L73.1985 51.2458Z" fill="black"/>
<path fill-rule="evenodd" clip-rule="evenodd" d="M88.8889 50L11.1111 50L50.5555 88.8889L88.8889 50ZM86.0437 51.1785L13.9563 51.1785L50.5555 87.2222L86.0437 51.1785Z" fill="black"/>
<path fill-rule="evenodd" clip-rule="evenodd" d="M100 50L0 50L50 100L100 50ZM96.2064 51.5713L3.79357 51.5713L50 97.7778L96.2064 51.5713Z" fill="black"/>
<path fill-rule="evenodd" clip-rule="evenodd" d="M11.1111 50L88.8889 50L50.0001 11.1111L11.1111 50ZM13.9564 48.8215L86.0438 48.8215L50.0001 12.7778L13.9564 48.8215Z" fill="black"/>
<path fill-rule="evenodd" clip-rule="evenodd" d="M0 50L100 50L50.0001 0L0 50ZM2.84524 48.8215L97.1549 48.8215L50.0001 1.66667L2.84524 48.8215Z" fill="black"/>
<path d="M66.4356 16.4355V49.1045L65.257 49.1045V15.257L66.4356 16.4355Z" fill="black"/>
<path d="M58.5788 8.57877V49.1045L57.4003 49.1045V7.40026L58.5788 8.57877Z" fill="black"/>
<path d="M50.7221 0.722027V49.1045L49.5436 49.1045L49.5436 0.45643L50.0001 0L50.7221 0.722027Z" fill="black"/>
<path d="M42.8653 7.13466V49.1045L41.6868 49.1045V8.31317L42.8653 7.13466Z" fill="black"/>
<path d="M35.0086 14.9914V49.1045H33.8301L33.8301 16.1699L35.0086 14.9914Z" fill="black"/>
<path d="M25.9733 24.0267L27.1519 22.8481L27.1519 49.1045H25.9733L25.9733 24.0267Z" fill="black"/>
<path d="M18.1166 31.8834L19.2951 30.7049L19.2951 49.1045H18.1166L18.1166 31.8834Z" fill="black"/>
<path d="M10.2599 39.7401L11.4384 38.5616L11.4384 49.1045H10.2599L10.2599 39.7401Z" fill="black"/>
<path d="M73.1138 23.1137L74.2923 24.2923V49.1045H73.1138V23.1137Z" fill="black"/>
<path d="M80.9705 30.9705V49.1045H82.149V32.149L80.9705 30.9705Z" fill="black"/>
<path d="M88.8273 38.8272V49.1045H90.0058V40.0057L88.8273 38.8272Z" fill="black"/>
<path fill-rule="evenodd" clip-rule="evenodd" d="M50.2777 99.7223L0.277702 49.7223L1.48465 49.4974L4.03809 49.0382L52.4999 97.5001L50.2777 99.7223Z" fill="black"/>
</svg>
