<svg width="945" height="1240" viewBox="0 0 945 1240" fill="none" xmlns="http://www.w3.org/2000/svg">
<rect x="705.567" y="1239.14" width="199" height="199" transform="rotate(-135 705.567 1239.14)" stroke="white"/>
<rect x="705.567" y="1239.14" width="99" height="99" transform="rotate(-135 705.567 1239.14)" stroke="white"/>
<rect x="705.567" y="1239.14" width="49" height="49" transform="rotate(-135 705.567 1239.14)" stroke="white"/>
<rect x="705.567" y="1239.14" width="149" height="149" transform="rotate(-135 705.567 1239.14)" stroke="white"/>
<rect x="846.282" y="1098.42" width="199" height="199" transform="rotate(-135 846.282 1098.42)" stroke="white"/>
<rect x="846.282" y="1098.42" width="99" height="99" transform="rotate(-135 846.282 1098.42)" stroke="white"/>
<rect x="846.282" y="1098.42" width="149" height="149" transform="rotate(-135 846.282 1098.42)" stroke="white"/>
<rect x="986.996" y="957.71" width="199" height="199" transform="rotate(-135 986.996 957.71)" stroke="white"/>
<rect x="564.853" y="1098.42" width="199" height="199" transform="rotate(-135 564.853 1098.42)" stroke="white"/>
<rect x="564.853" y="886.424" width="49" height="49" transform="rotate(-135 564.853 886.424)" stroke="white"/>
<rect x="705.567" y="957.71" width="199" height="199" transform="rotate(-135 705.567 957.71)" stroke="white"/>
<rect x="705.567" y="957.71" width="99" height="99" transform="rotate(-135 705.567 957.71)" stroke="white"/>
<rect x="705.567" y="957.71" width="49" height="49" transform="rotate(-135 705.567 957.71)" stroke="white"/>
<rect x="705.567" y="957.71" width="149" height="149" transform="rotate(-135 705.567 957.71)" stroke="white"/>
<rect y="0.707107" width="199" height="199" transform="matrix(-0.707107 0.707107 0.707107 0.707107 845.782 535.067)" stroke="white"/>
<rect y="0.707107" width="99" height="99" transform="matrix(-0.707107 0.707107 0.707107 0.707107 845.782 535.067)" stroke="white"/>
<rect y="0.707107" width="149" height="149" transform="matrix(-0.707107 0.707107 0.707107 0.707107 845.782 535.067)" stroke="white"/>
<rect x="986.996" y="676.282" width="199" height="199" transform="rotate(-135 986.996 676.282)" stroke="white"/>
<rect x="986.996" y="676.282" width="99" height="99" transform="rotate(-135 986.996 676.282)" stroke="white"/>
<rect x="986.996" y="676.282" width="149" height="149" transform="rotate(-135 986.996 676.282)" stroke="white"/>
<rect x="423.997" y="957.568" width="199" height="199" transform="rotate(-135 423.997 957.568)" stroke="white"/>
<rect x="423.997" y="957.568" width="99" height="99" transform="rotate(-135 423.997 957.568)" stroke="white"/>
<rect x="423.997" y="957.568" width="49" height="49" transform="rotate(-135 423.997 957.568)" stroke="white"/>
<rect x="423.997" y="957.568" width="149" height="149" transform="rotate(-135 423.997 957.568)" stroke="white"/>
<rect x="564.853" y="816.996" width="199" height="199" transform="rotate(-135 564.853 816.996)" stroke="white"/>
<rect x="564.71" y="745.86" width="149" height="149" transform="rotate(-135 564.71 745.86)" stroke="white"/>
<rect x="705.567" y="675.999" width="199" height="199" transform="rotate(-135 705.567 675.999)" stroke="white"/>
<rect x="705.567" y="675.999" width="99" height="99" transform="rotate(-135 705.567 675.999)" stroke="white"/>
<rect x="705.567" y="675.999" width="49" height="49" transform="rotate(-135 705.567 675.999)" stroke="white"/>
<rect x="705.567" y="675.999" width="149" height="149" transform="rotate(-135 705.567 675.999)" stroke="white"/>
<rect y="-0.707107" width="199" height="199" transform="matrix(0.707107 -0.707107 -0.707107 -0.707107 845.781 534.785)" stroke="white"/>
<rect y="-0.707107" width="49" height="49" transform="matrix(0.707107 -0.707107 -0.707107 -0.707107 845.781 322.785)" stroke="white"/>
<rect y="0.707107" width="149" height="149" transform="matrix(-0.707107 0.707107 0.707107 0.707107 846.214 252.921)" stroke="white"/>
<rect x="987.429" y="394.136" width="199" height="199" transform="rotate(-135 987.429 394.136)" stroke="white"/>
<rect x="283.141" y="816.712" width="199" height="199" transform="rotate(-135 283.141 816.712)" stroke="white"/>
<rect x="283.141" y="674.712" width="99" height="99" transform="rotate(-135 283.141 674.712)" stroke="white"/>
<rect x="283.141" y="604.712" width="49" height="49" transform="rotate(-135 283.141 604.712)" stroke="white"/>
<rect x="424" y="675.564" width="199" height="199" transform="rotate(-135 424 675.564)" stroke="white"/>
<rect x="424" y="675.564" width="99" height="99" transform="rotate(-135 424 675.564)" stroke="white"/>
<rect x="424" y="675.564" width="49" height="49" transform="rotate(-135 424 675.564)" stroke="white"/>
<rect x="424" y="675.564" width="149" height="149" transform="rotate(-135 424 675.564)" stroke="white"/>
<rect y="0.707107" width="199" height="199" transform="matrix(-0.707107 0.707107 0.707107 0.707107 564.214 252.921)" stroke="white"/>
<rect y="0.707107" width="99" height="99" transform="matrix(-0.707107 0.707107 0.707107 0.707107 564.214 252.921)" stroke="white"/>
<rect y="0.707107" width="49" height="49" transform="matrix(-0.707107 0.707107 0.707107 0.707107 564.214 252.921)" stroke="white"/>
<rect y="0.707107" width="149" height="149" transform="matrix(-0.707107 0.707107 0.707107 0.707107 564.214 252.921)" stroke="white"/>
<rect y="-0.707107" width="199" height="199" transform="matrix(0.707107 -0.707107 -0.707107 -0.707107 704.928 393.635)" stroke="white"/>
<rect y="-0.707107" width="49" height="49" transform="matrix(0.707107 -0.707107 -0.707107 -0.707107 704.928 181.635)" stroke="white"/>
<rect x="846.143" y="253.421" width="199" height="199" transform="rotate(-135 846.143 253.421)" stroke="white"/>
<rect x="846.143" y="253.421" width="99" height="99" transform="rotate(-135 846.143 253.421)" stroke="white"/>
<rect x="846.143" y="253.421" width="49" height="49" transform="rotate(-135 846.143 253.421)" stroke="white"/>
<rect x="846.143" y="253.421" width="149" height="149" transform="rotate(-135 846.143 253.421)" stroke="white"/>
<rect x="141.995" y="675.567" width="199" height="199" transform="rotate(-135 141.995 675.567)" stroke="white"/>
<rect x="282.71" y="253.424" width="199" height="199" transform="rotate(45 282.71 253.424)" stroke="white"/>
<rect x="282.71" y="253.424" width="99" height="99" transform="rotate(45 282.71 253.424)" stroke="white"/>
<rect x="282.71" y="253.424" width="49" height="49" transform="rotate(45 282.71 253.424)" stroke="white"/>
<rect x="282.71" y="253.424" width="149" height="149" transform="rotate(45 282.71 253.424)" stroke="white"/>
<rect x="423.424" y="394.138" width="199" height="199" transform="rotate(-135 423.424 394.138)" stroke="white"/>
<rect x="423.424" y="394.138" width="49" height="49" transform="rotate(-135 423.424 394.138)" stroke="white"/>
<rect x="423.424" y="394.138" width="149" height="149" transform="rotate(-135 423.424 394.138)" stroke="white"/>
<rect x="564.137" y="-28.2875" width="199" height="199" transform="rotate(45 564.137 -28.2875)" stroke="white"/>
<rect x="564.28" y="42.848" width="149" height="149" transform="rotate(45 564.28 42.848)" stroke="white"/>
<rect x="564.143" y="253.421" width="99" height="99" transform="rotate(-135 564.143 253.421)" stroke="white"/>
<rect x="704.993" y="112.569" width="199" height="199" transform="rotate(-135 704.993 112.569)" stroke="white"/>
<path fill-rule="evenodd" clip-rule="evenodd" d="M224.256 531.355H67.0333L144.072 609.966L224.256 531.355ZM208.152 538.026H83.137L144.072 600.533L208.152 538.026Z" fill="#D9BF36"/>
<path fill-rule="evenodd" clip-rule="evenodd" d="M252.555 534.5H32.4443L144.072 644.556L252.555 534.5ZM244.504 537.835H40.4962L144.072 639.839L244.504 537.835Z" fill="#D9BF36"/>
<path fill-rule="evenodd" clip-rule="evenodd" d="M284 534.5H0.999985L142.5 676L284 534.5ZM273.264 538.947L11.7358 538.947L142.5 669.711L273.264 538.947Z" fill="#D9BF36"/>
<path fill-rule="evenodd" clip-rule="evenodd" d="M32.4443 534.5H252.555L142.5 424.444L32.4443 534.5ZM40.4966 531.165L244.504 531.165L142.5 429.161L40.4966 531.165Z" fill="#D9BF36"/>
<path fill-rule="evenodd" clip-rule="evenodd" d="M0.999985 534.5H284L142.5 393L0.999985 534.5ZM9.05202 531.165L275.948 531.165L142.5 397.717L9.05202 531.165Z" fill="#D9BF36"/>
<path d="M189.013 439.512V531.966H185.677V436.177L189.013 439.512Z" fill="#D9BF36"/>
<path d="M166.778 417.278V531.966H163.443V413.943L166.778 417.278Z" fill="#D9BF36"/>
<path d="M144.543 395.043V531.966H141.208V394.292L142.5 393L144.543 395.043Z" fill="#D9BF36"/>
<path d="M122.309 413.191L122.309 531.966H118.974L118.974 416.526L122.309 413.191Z" fill="#D9BF36"/>
<path d="M100.074 435.426L100.074 531.966H96.7391L96.7391 438.761L100.074 435.426Z" fill="#D9BF36"/>
<path d="M74.5046 460.995L77.8397 457.66L77.8397 531.966H74.5045L74.5046 460.995Z" fill="#D9BF36"/>
<path d="M52.27 483.23L55.6052 479.895L55.6052 531.966H52.27V483.23Z" fill="#D9BF36"/>
<path d="M30.0354 505.465L33.3706 502.129V531.966H30.0354V505.465Z" fill="#D9BF36"/>
<path d="M207.912 458.412L211.247 461.747V531.966H207.912V458.412Z" fill="#D9BF36"/>
<path d="M230.147 480.646V531.966H233.482V483.982L230.147 480.646Z" fill="#D9BF36"/>
<path d="M252.381 502.881V531.966H255.716V506.216L252.381 502.881Z" fill="#D9BF36"/>
<path fill-rule="evenodd" clip-rule="evenodd" d="M143.286 675.214L1.78588 533.714L5.20154 533.078L12.4278 531.778L149.575 668.925L143.286 675.214Z" fill="#D9BF36"/>
</svg>
